<svg xmlns="http://www.w3.org/2000/svg" xmlns:xlink="http://www.w3.org/1999/xlink" width="400" height="400" viewBox="0 0 400 400"><defs><linearGradient id="gradient-19"><stop stop-color="#905e25" offset="0"/><stop stop-color="#f5ec8b" offset="0.5"/><stop stop-color="#905e36" offset="1"/></linearGradient></defs>
<rect data-name="background" width="100%" height="100%" fill="#22242d"/><g data-name="watermark" class="watermark-logodesign" stroke="#ffffff" transform="translate(10, 320) scale(1.5) rotate(-45)" style="opacity:0.040000010281801224;"><path fill="#000000" d="M22.92,19.2q3.04,1.68,4.8,4.7t1.76,6.78t-1.76,6.78t-4.8,4.7t-6.68,1.68t-6.7-1.68t-4.84-4.7t-1.78-6.78t1.78-6.78t4.84-4.7t6.7-1.68t6.68,1.68z M11.14,21.74q-2.26,1.3-3.54,3.62t-1.28,5.32t1.28,5.32t3.54,3.6t5.1,1.28t5.08-1.28t3.52-3.6t1.28-5.32t-1.28-5.32t-3.54-3.62t-5.06-1.3q-2.84,0-5.1,1.3z M21.4,24.76l-1.8,2.32q-0.72-0.56-1.4-0.78t-1.48-0.22q-1.44,0-2.3,1.1t-0.86,3.46q0,2.32,0.82,3.44t2.26,1.12q0.96,0,1.74-0.3t1.54-0.9l1.64,2.44q-2.24,2.04-5.2,2.04q-3.2,0-5.08-2.04t-1.88-5.8q0-2.4,0.9-4.16t2.48-2.7t3.54-0.94q2.92,0,5.08,1.92z M41.2,20.32l0,22.96l10.96,0l-0.64,4.72l-16.2,0l0-27.68l5.88,0z M71.92,29.14q2.68,2.98,2.68,8.26q0,3.36-1.22,5.9t-3.52,3.94t-5.42,1.4q-4.76,0-7.46-2.98t-2.7-8.26q0-3.36,1.22-5.9t3.52-3.94t5.46-1.4q4.76,0,7.44,2.98z M61.26,32.1q-1.06,1.7-1.06,5.3t1.06,5.3t3.18,1.7t3.18-1.7t1.06-5.3t-1.04-5.3t-3.16-1.7q-2.16,0-3.22,1.7z M97.88,27.96q-2.08,0.8-6.12,0.8q2,0.88,2.96,2.18t0.96,3.26q0,2.04-1.06,3.66t-3.04,2.54t-4.62,0.92q-1.4,0-2.48-0.28q-0.8,0.52-0.8,1.4q0,0.64,0.5,1.02t1.94,0.38l3.24,0q2.36,0,4.14,0.78t2.76,2.16t0.98,3.14q0,3.24-2.78,5.06t-8.02,1.82q-3.76,0-5.94-0.78t-3.06-2.26t-0.88-3.72l5.08,0q0,1.04,0.4,1.66t1.46,0.92t3.06,0.3q2.76,0,3.86-0.68t1.1-1.92q0-1.12-0.84-1.72t-2.48-0.6l-3.12,0q-3.16,0-4.72-1.18t-1.56-2.98q0-1.12,0.66-2.18t1.82-1.78q-1.96-1.08-2.86-2.54t-0.9-3.5q0-2.32,1.14-4.06t3.2-2.68t4.7-0.94q3.28,0.08,5.4-0.56t4.52-2z M84.14,30.98q-0.94,1.02-0.94,2.78q0,1.8,0.94,2.84t2.58,1.04q1.72,0,2.6-1t0.88-2.96q0-3.72-3.52-3.72q-1.6,0-2.54,1.02z M117.04,29.14q2.68,2.98,2.68,8.26q0,3.36-1.22,5.9t-3.52,3.94t-5.42,1.4q-4.76,0-7.46-2.98t-2.7-8.26q0-3.36,1.22-5.9t3.52-3.94t5.46-1.4q4.76,0,7.44,2.98z M106.38,32.1q-1.06,1.7-1.06,5.3t1.06,5.3t3.18,1.7t3.18-1.7t1.06-5.3t-1.04-5.3t-3.16-1.7q-2.16,0-3.22,1.7z M141.78,23.26q3.9,2.94,3.9,10.78q0,7.68-3.82,10.82t-9.78,3.14l-7.92,0l0-27.68l7.24,0q6.48,0,10.38,2.94z M130.04,24.64l0,19.04l2.4,0q3.4,0,5.26-2.1t1.86-7.54q0-3.76-0.94-5.84t-2.5-2.82t-3.8-0.74l-2.28,0z M167.84,39.12l-13.24,0q0.28,2.88,1.56,4.08t3.48,1.2q1.36,0,2.56-0.44t2.6-1.4l2.36,3.2q-3.56,2.88-8.04,2.88q-5,0-7.68-3t-2.68-8.12q0-3.24,1.14-5.82t3.32-4.06t5.18-1.48q4.52,0,7.04,2.84t2.52,7.92q0,0.4-0.12,2.2z M162.32,35.32q0-5.28-3.8-5.28q-1.76,0-2.74,1.3t-1.18,4.22l7.72,0l0-0.24z M186.8,28.72l-2.16,3.24q-2.68-1.68-5.28-1.68q-1.4,0-2.16,0.52t-0.76,1.4q0,0.64,0.34,1.08t1.28,0.84t2.82,0.96q3.36,0.92,5,2.46t1.64,4.22q0,2.12-1.22,3.68t-3.3,2.38t-4.64,0.82q-2.68,0-4.88-0.82t-3.76-2.26l2.8-3.12q2.68,2.08,5.68,2.08q1.6,0,2.54-0.62t0.94-1.7q0-0.84-0.36-1.32t-1.32-0.9t-3-0.98q-3.2-0.88-4.74-2.5t-1.54-4.02q0-1.8,1.04-3.24t2.94-2.26t4.42-0.82q4.48,0,7.68,2.56z M196.92,26.8l0,21.2l-5.68,0l0-21.2l5.68,0z M196.54,16.82q0.98,0.94,0.98,2.38t-0.98,2.38t-2.5,0.94t-2.48-0.94t-0.96-2.38t0.96-2.38t2.48-0.94t2.5,0.94z M221.48,27.96q-2.08,0.8-6.12,0.8q2,0.88,2.96,2.18t0.96,3.26q0,2.04-1.06,3.66t-3.04,2.54t-4.62,0.92q-1.4,0-2.48-0.28q-0.8,0.52-0.8,1.4q0,0.64,0.5,1.02t1.94,0.38l3.24,0q2.36,0,4.14,0.78t2.76,2.16t0.98,3.14q0,3.24-2.78,5.06t-8.02,1.82q-3.76,0-5.94-0.78t-3.06-2.26t-0.88-3.72l5.08,0q0,1.04,0.4,1.66t1.46,0.92t3.06,0.3q2.76,0,3.86-0.68t1.1-1.92q0-1.12-0.84-1.72t-2.48-0.6l-3.12,0q-3.16,0-4.72-1.18t-1.56-2.98q0-1.12,0.66-2.18t1.82-1.78q-1.96-1.08-2.86-2.54t-0.9-3.5q0-2.32,1.14-4.06t3.2-2.68t4.7-0.94q3.28,0.08,5.4-0.56t4.52-2z M207.74,30.98q-0.94,1.02-0.94,2.78q0,1.8,0.94,2.84t2.58,1.04q1.72,0,2.6-1t0.88-2.96q0-3.72-3.52-3.72q-1.6,0-2.54,1.02z M240.48,27.86q1.56,1.7,1.56,4.7l0,15.44l-5.68,0l0-14.48q0-1.72-0.58-2.42t-1.74-0.7q-1.2,0-2.18,0.74t-1.9,2.22l0,14.64l-5.68,0l0-21.2l4.92,0l0.44,2.68q1.32-1.64,2.9-2.48t3.58-0.84q2.8,0,4.36,1.7z M251.84,42.8q1,1,1,2.4t-1,2.42t-2.44,1.02q-1.4,0-2.4-1.02t-1-2.42t1-2.4t2.4-1q1.44,0,2.44,1z M271.8,48l-1.56-6.2l-8.68,0l-1.56,6.2l-6.12,0l8.52-27.68l7.16,0l8.48,27.68l-6.24,0z M262.68,37.44l6.44,0l-3.24-12.76z M286.48,20.32l0,27.68l-5.88,0l0-27.68l5.88,0z"/></g><g data-name="icon" fill="url(#gradient-19)" data="id:6094185" transform="translate(100.5198014177792,59.080059908118244) scale(1.9895840108368121)">
  <path d="M47.598,61.525h14.701c1.932,0,3.504,1.572,3.504,3.504v8.652c0,0.414-0.336,0.75-0.75,0.75s-0.75-0.336-0.75-0.75v-8.652  c0-1.105-0.899-2.004-2.004-2.004H47.598c-1.105,0-2.004,0.899-2.004,2.004v8.652c0,0.414-0.336,0.75-0.75,0.75  s-0.75-0.336-0.75-0.75v-8.652C44.094,63.097,45.666,61.525,47.598,61.525z M83.25,27.082c0,0.319-0.202,0.604-0.504,0.708  l-4.888,1.699v9.497l2.85,8.06c0.096,0.272,0.028,0.576-0.177,0.78l-2.893,2.893c-0.146,0.146-0.338,0.22-0.53,0.22  s-0.384-0.073-0.53-0.22l-2.893-2.893c-0.205-0.204-0.273-0.508-0.177-0.78l2.85-8.06v-8.976l-4.27,1.484v8.533  c0,0.319-0.202,0.604-0.503,0.708l-6.921,2.407c0.86,0.589,1.672,1.251,2.416,1.995c3.238,3.237,5.021,7.544,5.021,12.126v0.788  c3.318,0.376,5.905,3.197,5.905,6.613v12.918c0,0.92-0.748,1.668-1.668,1.668h-4.237v2.013c0,0.92-0.748,1.668-1.668,1.668H39.464  c-0.92,0-1.668-0.748-1.668-1.668v-2.014h-4.235c-0.92,0-1.668-0.748-1.668-1.668v-6.198l-3.182,5.508  c-0.005,0.009-0.015,0.015-0.021,0.024c-0.036,0.058-0.082,0.106-0.134,0.153c-0.023,0.021-0.044,0.041-0.07,0.059  c-0.022,0.015-0.036,0.037-0.06,0.05l-10.311,5.661c-0.112,0.062-0.237,0.093-0.361,0.093c-0.129,0-0.259-0.034-0.375-0.101  c-0.227-0.131-0.369-0.371-0.375-0.633l-0.253-11.76c0-0.023,0.01-0.042,0.012-0.065c0.003-0.044,0.012-0.085,0.023-0.127  c0.013-0.054,0.028-0.105,0.052-0.154c0.007-0.015,0.007-0.032,0.016-0.046l19.712-34.146c0.154-0.266,0.447-0.417,0.76-0.367  c0.839,0.124,1.6,0.303,2.334,0.51v-4.549L29.001,27.79c-0.302-0.105-0.504-0.389-0.504-0.708s0.202-0.604,0.503-0.708l26.626-9.264  c0.16-0.056,0.333-0.056,0.493,0l26.626,9.264C83.048,26.478,83.25,26.762,83.25,27.082z M79.136,47.101l-2.028-5.736l-2.028,5.736  l2.028,2.028L79.136,47.101z M35.739,40.333l9.27,5.352l1.57-2.717l-6.417-2.231c-0.301-0.105-0.503-0.389-0.503-0.708v-2.427  c-0.645-0.202-1.316-0.376-2.052-0.504L35.739,40.333z M18.527,70.147l2.221,1.283l9.205-15.944c0.208-0.36,0.667-0.481,1.024-0.274  c0.359,0.207,0.481,0.666,0.274,1.024l-9.205,15.944l5.739,3.314l16.473-28.51l-2.227-1.286l-9.206,15.946  c-0.139,0.241-0.391,0.375-0.65,0.375c-0.127,0-0.256-0.032-0.375-0.101c-0.359-0.207-0.481-0.666-0.274-1.024l9.206-15.945  l-5.744-3.316L18.527,70.147z M26.538,76.504l-5.884-3.397c-0.002-0.001-0.005-0.001-0.007-0.002  c-0.003-0.002-0.004-0.004-0.007-0.006l-2.361-1.363l0.092,4.282l4.419,2.544L26.538,76.504z M18.477,80.93l2.774-1.523  l-2.842-1.636L18.477,80.93z M37.796,77.751V61.167l-4.404,7.622v8.794c0,0.091,0.077,0.168,0.168,0.168H37.796z M72.102,59.583  v18.169h4.237c0.093,0,0.168-0.075,0.168-0.168V64.666C76.507,62.079,74.587,59.952,72.102,59.583z M62.855,43.772l-6.735,2.342  c-0.08,0.028-0.163,0.042-0.247,0.042s-0.167-0.014-0.247-0.042l-7.606-2.645l-8.725,15.102v22.694c0,0.091,0.077,0.168,0.168,0.168  h30.969c0.091,0,0.168-0.077,0.168-0.168v-2.743c0-0.007-0.004-0.013-0.004-0.019s0.004-0.013,0.004-0.019V58.776  c0-0.007-0.004-0.013-0.004-0.019s0.004-0.013,0.004-0.019v-1.473c0-4.182-1.627-8.111-4.582-11.066  C65.07,45.249,64.005,44.438,62.855,43.772z M70.588,32.016L56.12,37.045c-0.08,0.028-0.163,0.042-0.246,0.042  s-0.167-0.014-0.246-0.042l-14.469-5.029v7.479l6.811,2.369c0.002,0.001,0.004,0.001,0.007,0.002l7.897,2.746l14.715-5.117V32.016z   M80.217,27.081l-24.343-8.47l-24.343,8.47l24.343,8.461L80.217,27.081z"/>
  </g><g data-name="business_name" fill="#ffffff" data="id:268" transform="translate(58.51227727395075,214.29139321938646) scale(1.6548272955931378)"><path d="M24.92,55.36q-0.04,0.56-0.04,0.6l-6.44,0.04q-1.96-1.36-3.88-3.48t-2.6-4.44q-10.36-0.8-10.36-14q0-6.52,3.38-10.38t8.42-3.86q11.8,0,11.8,14.24q0,6.16-3.04,9.9t-7.72,4.14q1,3.44,5.44,6.96z M4.32,34q0,13.36,9.08,13.36q3.92,0,6.5-3.58t2.58-9.78q0-13.36-9.08-13.36q-3.88,0-6.48,3.58t-2.6,9.78z M29.24,28.64l-0.04-0.6l5.4-0.04l0,13.92q0,1.56,0.44,2.7t0.98,1.66t1.26,0.8q1.12,0.4,1.88,0.32q2.44-0.04,5.56-2.52l0-15.48q-0.16-0.48-0.68-0.56l-2.08-0.2q-0.04-0.24-0.04-0.6l5.4-0.04l0,18.16q0.08,1,0.64,1l2.4,0.12l-0.04,0.6q-1.92,0.32-4,0.32q-0.48-0.04-1.04-0.54t-0.56-1.26l0-0.72q-3.64,2.44-6.88,2.44q-1.36,0-3.2-0.68q-1.2-0.44-1.92-1.66t-0.72-3.06l0-13.28q0-0.2-0.22-0.38t-0.46-0.22z M60.4,29.64l0,17.56l3,0.2q0,0.04-0.04,0.6l-8,0.04q0-0.36,0.04-0.56l2.08-0.28q0.24,0,0.32-0.36l0-17.56q-0.08-0.28-0.24-0.28l-2.4-0.08l0.04-0.56q2.16-0.36,3.28-0.36t1.52,0.52t0.4,1.12z M57.8,22.14q-0.44-0.5-0.44-1.32t0.46-1.32t1.26-0.5t1.3,0.5t0.5,1.36t-0.52,1.32t-1.32,0.46t-1.24-0.5z M67.72,28l14.88,0l0.36,0.72l-0.04,0l-12.48,18.56l12.32,0l0.24-5.44l0.76-0.28l0,6.36l0.04,0.08l-16.44,0l-0.36-0.72l12.6-18.56l-10.84,0l-0.28,4.8l-0.76,0.28l0-5.8z M87.72,28l14.88,0l0.36,0.72l-0.04,0l-12.48,18.56l12.32,0l0.24-5.44l0.76-0.28l0,6.36l0.04,0.08l-16.44,0l-0.36-0.72l12.6-18.56l-10.84,0l-0.28,4.8l-0.76,0.28l0-5.8z M113.04,29.64l0,17.56l3,0.2q0,0.04-0.04,0.6l-8,0.04q0-0.36,0.04-0.56l2.08-0.28q0.24,0,0.32-0.36l0-17.56q-0.08-0.28-0.24-0.28l-2.4-0.08l0.04-0.56q2.16-0.36,3.28-0.36t1.52,0.52t0.4,1.12z M110.44,22.14q-0.44-0.5-0.44-1.32t0.46-1.32t1.26-0.5t1.3,0.5t0.5,1.36t-0.52,1.32t-1.32,0.46t-1.24-0.5z M130.04,28.56q-3.4,0-5.5,2.66t-2.1,7.54q0,8.68,6.6,8.68q2.6,0,4.44-0.5t2-0.62l0.28,0.44q-0.92,0.6-3.04,1t-3.84,0.4t-3.12-0.36t-2.82-1.28t-2.26-2.9t-0.84-4.82q0-5.24,2.68-7.92q3-3.08,7.56-3.08q1.44,0,3.06,0.38t2.5,1.18l0,5.24l-0.76,0.28l-0.2-4.2q-0.88-0.92-2.14-1.52t-2.5-0.6z M151.56,46.48l-0.12,0q-3.6,1.68-7,1.68q-5.32,0-5.64-4.2q-0.04-0.28-0.04-0.52q0-3.08,4.04-4.12q2.4-0.52,8.64-1.24l0-3.52q0-1.68-0.4-2.88t-0.88-1.78t-1.24-0.9q-0.96-0.4-2.14-0.4t-2.7,0.6q-2.2,0.92-3.92,2.32l-0.16,3.12l-0.76,0.2l0-4.84l0.4-0.16q3.12-1.36,4.76-1.64t2.4-0.3t1.46,0.02t1.82,0.36t1.94,0.9t1.42,1.74t0.6,2.76l0,12.24q0,1.24,0.64,1.24l2.44,0.12l-0.04,0.6q-2.24,0.32-4,0.32q-0.48-0.04-1-0.5t-0.52-1.22z M145.16,47.52q2.96,0,6.28-2.08l0-6.6q-6,0.2-7.54,0.7t-2.12,1.56t-0.58,2.1l0,0.4q0.12,2.08,1.24,3t2.72,0.92z M161.32,48.04l0.04-0.56l2.08-0.28q0.28-0.04,0.36-0.4l0-27.36q0-0.44-0.24-0.44l-2.44-0.08l0.04-0.56q2.52-0.36,3.46-0.36t1.36,0.52t0.42,1.12l0,27.56l3,0.2q0,0.04-0.04,0.6z"/></g></svg>